<?xml version="1.0"?>
<svg width="100%" height="100%" viewBox="0 0 60 60" fill="none" id="articles_cache47"
    xmlns="http://www.w3.org/2000/svg" fit="" preserveAspectRatio="xMidYMid meet" focusable="false">
    <rect width="60" height="60" fill="white" fill-opacity="0"></rect>
    <path d="M13 50.0667V9.6C13 9.26863 13.2686 9 13.6 9H38.7931C38.9523 9 39.1049 9.06321 39.2174 9.17574L46.1576 16.1159C46.2701 16.2285 46.3333 16.3811 46.3333 16.5402V50.0667C46.3333 50.398 46.0647 50.6667 45.7333 50.6667H13.6C13.2686 50.6667 13 50.398 13 50.0667Z" stroke="black" stroke-width="2.5" stroke-linecap="round" stroke-linejoin="round"></path>
    <path d="M38 16.7333V9.6C38 9.26863 38.2686 9 38.6 9H38.7931C38.9523 9 39.1049 9.06321 39.2174 9.17574L46.1576 16.1159C46.2701 16.2285 46.3333 16.3811 46.3333 16.5402V16.7333C46.3333 17.0647 46.0647 17.3333 45.7333 17.3333H38.6C38.2686 17.3333 38 17.0647 38 16.7333Z" fill="black" stroke="black" stroke-width="2.5" stroke-linecap="round" stroke-linejoin="round"></path>
    <path d="M21.334 25.6666L38.0007 25.6666" stroke="black" stroke-width="2.5" stroke-linecap="round" stroke-linejoin="round"></path>
    <path d="M21.334 42.3333L38.0007 42.3333" stroke="black" stroke-width="2.5" stroke-linecap="round" stroke-linejoin="round"></path>
    <path d="M21.334 34L29.6673 34" stroke="black" stroke-width="2.5" stroke-linecap="round" stroke-linejoin="round"></path>
</svg>