<?xml version="1.0"?>
<svg width="100%" height="100%" viewBox="0 0 60 60" fill="none" id="images_cache49"
    xmlns="http://www.w3.org/2000/svg" fit="" preserveAspectRatio="xMidYMid meet" focusable="false">
    <rect width="60" height="60" fill="white" fill-opacity="0"></rect>
    <path d="M48.5 11.6V47.9C48.5 48.2314 48.2314 48.5 47.9 48.5H11.6C11.2686 48.5 11 48.2314 11 47.9V11.6C11 11.2686 11.2686 11 11.6 11H47.9C48.2314 11 48.5 11.2686 48.5 11.6Z" stroke="black" stroke-width="2.5" stroke-linecap="round" stroke-linejoin="round"></path>
    <path d="M11 38.0833L25.5833 31.8333L48.5 42.25" stroke="black" stroke-width="2.5" stroke-linecap="round" stroke-linejoin="round"></path>
    <path d="M38.0833 25.5833C35.7821 25.5833 33.9167 23.7179 33.9167 21.4167C33.9167 19.1155 35.7821 17.25 38.0833 17.25C40.3845 17.25 42.25 19.1155 42.25 21.4167C42.25 23.7179 40.3845 25.5833 38.0833 25.5833Z" stroke="black" stroke-width="2.5" stroke-linecap="round" stroke-linejoin="round"></path>
</svg>