<?xml version="1.0"?>
<svg viewBox="0 0 24 24" fill="white" id="journals_cache48"
    xmlns="http://www.w3.org/2000/svg" fit="" height="100%" width="100%" preserveAspectRatio="xMidYMid meet" focusable="false">
    <path d="M 19.416266,3.5585542 V 19.633864 c 0,0.146759 -0.118948,0.265707 -0.265708,0.265707 H 4.9204553 c -0.146759,0 -0.265707,-0.118948 -0.265707,-0.265707 V 3.5585542 c 0,-0.146759 0.118948,-0.265708 0.265707,-0.265708 H 19.150558 c 0.14676,0 0.265708,0.118949 0.265708,0.265708 z" stroke="#000000" stroke-linecap="round" stroke-linejoin="round"></path>
    <path d="m 14.913224,8.7069649 v 3.1589531 c 0,0.146759 -0.118948,0.265708 -0.265707,0.265708 H 9.6433579 c -0.146759,0 -0.265708,-0.118949 -0.265708,-0.265708 V 8.7069649 c 0,-0.146759 0.118949,-0.265708 0.265708,-0.265708 h 5.0041591 c 0.146759,0 0.265707,0.118949 0.265707,0.265708 z" stroke="#000000" stroke-linecap="round" stroke-linejoin="round"></path>
    <path d="M 9.2537164,15.285074 H 14.789291" stroke="#000000" stroke-linecap="round"></path>
    <path d="m 3.7319893,6.0606342 h 1.845207" stroke="#000000" stroke-linecap="round"></path>
    <path d="m 3.7319893,9.7510022 h 1.845207" stroke="#000000" stroke-linecap="round"></path>
    <path d="m 3.7319893,13.441415 h 1.845207" stroke="#000000" stroke-linecap="round"></path>
    <path d="m 3.7319893,17.131784 h 1.845207" stroke="#000000" stroke-linecap="round"></path>

</svg>