<?xml version="1.0"?>
<svg width="100%" height="100%" viewBox="0 0 60 60" fill="white" id="videos_cache50"
    xmlns="http://www.w3.org/2000/svg" fit="" preserveAspectRatio="xMidYMid meet" focusable="false">
    <rect width="60" height="60" fill="white" fill-opacity="0"></rect>
    <path d="M9 46.5V13C9 11.8954 9.89543 11 11 11H48.6667C49.7712 11 50.6667 11.8954 50.6667 13V46.5C50.6667 47.6046 49.7712 48.5 48.6667 48.5H11C9.89543 48.5 9 47.6046 9 46.5Z" stroke="black" stroke-width="2.5" stroke-linecap="round"></path>
    <path d="M9 19.3333L50.6667 19.3333" stroke="black" stroke-width="2.5" stroke-linecap="round" stroke-linejoin="round"></path>
    <path d="M16.292 19.3333L20.4587 11" stroke="black" stroke-width="2.5" stroke-linecap="round" stroke-linejoin="round"></path>
    <path d="M27.543 19.3333L31.7096 11" stroke="black" stroke-width="2.5" stroke-linecap="round" stroke-linejoin="round"></path>
    <path d="M38.7939 19.3333L42.9606 11" stroke="black" stroke-width="2.5" stroke-linecap="round" stroke-linejoin="round"></path>
    <path d="M24.4889 26.1202C24.0889 25.8832 23.583 26.1715 23.583 26.6364V41.197C23.583 41.662 24.0889 41.9502 24.4889 41.7132L36.7745 34.4329C37.1666 34.2005 37.1666 33.6329 36.7745 33.4005L24.4889 26.1202Z" stroke="black" stroke-width="2.5" stroke-linecap="round" stroke-linejoin="round"></path>
</svg>